<?xml version="1.0" encoding="UTF-8"?>
<svg width="28px" height="25px" viewBox="0 0 28 25" version="1.1" xmlns="http://www.w3.org/2000/svg" xmlns:xlink="http://www.w3.org/1999/xlink">
    <!-- Generator: Sketch 51.3 (57544) - http://www.bohemiancoding.com/sketch -->
    <title>Page 1</title>
    <desc>Created with Sketch.</desc>
    <defs>
        <polygon id="path-1" points="0 0.103298507 27.8972339 0.103298507 27.8972339 17.9034045 0 17.9034045"></polygon>
        <polygon id="path-3" points="0.0624933333 0.0222954545 5.90676 0.0222954545 5.90676 6 0.0624933333 6"></polygon>
        <polygon id="path-5" points="0.11928 0.0222954545 5.96354667 0.0222954545 5.96354667 6 0.11928 6"></polygon>
    </defs>
    <g id="Symbols" stroke="none" stroke-width="1" fill="none" fill-rule="evenodd">
        <g id="card-A" transform="translate(-264.000000, -415.000000)">
            <g id="Group-2" transform="translate(264.000000, 415.000000)">
                <g id="Page-1">
                    <g id="Group-3">
                        <mask id="mask-2" fill="white">
                            <use xlink:href="#path-1"></use>
                        </mask>
                        <g id="Clip-2"></g>
                        <path d="M25.4226201,8.19710597 L20.4835005,8.19710597 L20.4835005,5.76294179 L26.0542947,5.76294179 L25.4226201,8.19710597 Z M24.3722852,12.2453597 L20.4835005,12.2453597 L20.4835005,9.80904627 L25.0044957,9.80904627 L24.3722852,12.2453597 Z M23.3224861,16.2914642 L20.4835005,16.2914642 L20.4835005,13.8573 L23.9541608,13.8573 L23.3224861,16.2914642 Z M14.2412421,8.19710597 L18.875845,8.19710597 L18.875845,5.76294179 L14.2412421,5.76294179 L14.2412421,8.19710597 Z M14.2412421,12.2453597 L18.875845,12.2453597 L18.875845,9.80904627 L14.2412421,9.80904627 L14.2412421,12.2453597 Z M14.2412421,16.2914642 L18.875845,16.2914642 L18.875845,13.8573 L14.2412421,13.8573 L14.2412421,16.2914642 Z M12.6335866,8.19710597 L7.69500287,8.19710597 L7.06332823,5.76294179 L12.6335866,5.76294179 L12.6335866,8.19710597 Z M12.6335866,12.2453597 L8.74480191,12.2453597 L8.11312727,9.80904627 L12.6335866,9.80904627 L12.6335866,12.2453597 Z M12.6335866,16.2914642 L9.79460096,16.2914642 L9.16292632,13.8573 L12.6335866,13.8573 L12.6335866,16.2914642 Z M27.7294718,4.46425522 C27.5771464,4.26692687 27.3426967,4.15100149 27.093644,4.15100149 L6.64520383,4.15100149 L5.75241914,0.706822388 C5.66024689,0.350986567 5.34059139,0.103285075 4.9741799,0.103285075 L0.80378756,0.103285075 C0.360074641,0.103285075 -4.01913876e-05,0.464359701 -4.01913876e-05,0.909255224 C-4.01913876e-05,1.35428507 0.360074641,1.71522537 0.80378756,1.71522537 L4.35255311,1.71522537 L5.24587368,5.16007612 L8.39460096,17.3000015 C8.48677321,17.6551657 8.80656268,17.9034045 9.17284019,17.9034045 L23.9442469,17.9034045 C24.3099885,17.9034045 24.629778,17.6551657 24.7219502,17.3000015 L27.8712134,5.16007612 C27.9340459,4.91868806 27.8816632,4.66158358 27.7294718,4.46425522 Z" id="Fill-1" fill="#F6B728" mask="url(#mask-2)"></path>
                    </g>
                    <g id="Group-6" transform="translate(9.000000, 19.000000)">
                        <mask id="mask-4" fill="white">
                            <use xlink:href="#path-3"></use>
                        </mask>
                        <g id="Clip-5"></g>
                        <path d="M2.98489333,4.36370455 C2.25569333,4.36370455 1.66249333,3.75647727 1.66249333,3.01056818 C1.66249333,2.26479545 2.25569333,1.65865909 2.98489333,1.65865909 C3.71356,1.65865909 4.30676,2.26534091 4.30676,3.01056818 C4.30676,3.75702273 3.71409333,4.36370455 2.98489333,4.36370455 M2.98489333,0.0222954545 C1.37342667,0.0222954545 0.0624933333,1.36302273 0.0624933333,3.01056818 C0.0624933333,4.65865909 1.37342667,6.00006818 2.98489333,6.00006818 C4.59582667,6.00006818 5.90676,4.65865909 5.90676,3.01056818 C5.90676,1.36302273 4.59582667,0.0222954545 2.98489333,0.0222954545" id="Fill-4" fill="#F6B728" mask="url(#mask-4)"></path>
                    </g>
                    <g id="Group-9" transform="translate(19.000000, 19.000000)">
                        <mask id="mask-6" fill="white">
                            <use xlink:href="#path-5"></use>
                        </mask>
                        <g id="Clip-8"></g>
                        <path d="M3.04114667,4.36370455 C2.31248,4.36370455 1.71928,3.75647727 1.71928,3.01056818 C1.71928,2.26479545 2.31248,1.65865909 3.04114667,1.65865909 C3.77034667,1.65865909 4.36354667,2.26534091 4.36354667,3.01056818 C4.36354667,3.75702273 3.77034667,4.36370455 3.04114667,4.36370455 M3.04114667,0.0222954545 C1.43021333,0.0222954545 0.11928,1.36302273 0.11928,3.01056818 C0.11928,4.65865909 1.43021333,6.00006818 3.04114667,6.00006818 C4.65261333,6.00006818 5.96354667,4.65865909 5.96354667,3.01056818 C5.96354667,1.36302273 4.65261333,0.0222954545 3.04114667,0.0222954545" id="Fill-7" fill="#F6B728" mask="url(#mask-6)"></path>
                    </g>
                </g>
            </g>
        </g>
    </g>
</svg>