<?xml version="1.0" encoding="UTF-8"?>
<svg width="186px" height="81px" viewBox="0 0 186 81" version="1.1" xmlns="http://www.w3.org/2000/svg" xmlns:xlink="http://www.w3.org/1999/xlink">
    <!-- Generator: Sketch 51.3 (57544) - http://www.bohemiancoding.com/sketch -->
    <title>Page 1</title>
    <desc>Created with Sketch.</desc>
    <defs>
        <polygon id="path-1" points="2.12676454e-05 0.0459002605 65.3408209 0.0459002605 65.3408209 69.8575393 2.12676454e-05 69.8575393"></polygon>
        <polygon id="path-3" points="0.139103797 0.173675478 29.7338564 0.173675478 29.7338564 31.4386678 0.139103797 31.4386678"></polygon>
    </defs>
    <g id="Welcome" stroke="none" stroke-width="1" fill="none" fill-rule="evenodd">
        <g id="Desktop-HD-Copy" transform="translate(-100.000000, -49.000000)">
            <g id="Page-1" transform="translate(100.000000, 49.000000)">
                <path d="M153.650476,69.5326495 C153.210865,69.4249679 152.772739,69.3170455 152.337161,69.2098457 C151.68995,69.0503711 151.05123,68.8937872 150.417391,68.7391304 C151.502516,69.014959 152.581484,69.2857287 153.652174,69.5478261 L153.650476,69.5326495 Z" id="Fill-1" fill="#FEFEFE"></path>
                <path d="M157.695652,70.3565217 C156.608913,70.0938723 155.528918,69.8207352 154.46087,69.5478261 L154.462411,69.5621897 C155.550306,69.8398867 156.628182,70.1055001 157.695652,70.3565217" id="Fill-3" fill="#FEFEFE"></path>
                <path d="M184.696263,67.5072818 C185.746293,65.6172405 186.216966,63.4017118 185.905121,61.1101385 C185.118944,55.3355578 179.67252,51.2684279 173.726585,52.0038038 C172.913722,46.239042 167.453094,42.1900876 161.504146,42.9532489 C155.555628,43.7164103 151.366056,49.0029689 152.123179,54.7746248 L152.122748,54.7746248 L152.12942,54.824973 L153.887934,67.7414739 C164.748068,70.0236461 176.81706,72.3626427 184.696263,67.5072818" id="Fill-5" fill="#FEFEFE"></path>
                <path d="M147.405702,16.3620454 L147.414018,16.3927482 L150.909907,29.1130435 L163.984469,25.7120858 L164.016027,25.7037878 L164.015814,25.7033729 C167.615972,24.7493041 169.750394,21.1427621 168.785533,17.6318552 C167.820459,14.1209484 164.120936,12.0319131 160.511609,12.9532046 C159.530755,9.45059581 155.823769,7.37380022 152.215082,8.31251763 C148.606395,9.25123505 146.459392,12.8505162 147.406129,16.3620454 L147.405702,16.3620454 Z" id="Fill-7" fill="#FEFEFE"></path>
                <g id="Group-11" transform="translate(0.000000, 10.513043)">
                    <mask id="mask-2" fill="white">
                        <use xlink:href="#path-1"></use>
                    </mask>
                    <g id="Clip-10"></g>
                    <path d="M59.9645728,2.92591661 C61.7336156,1.41690804 62.8914262,1.07297752 65.3408209,1.07297752 C63.5717782,0.388116488 61.9386357,0.0459002605 60.3726989,0.0459002605 C44.5144791,0.0459002605 38.9329983,35.0205273 33.283461,57.6502986 C33.4193612,55.3880715 33.4876304,52.9878436 33.4876304,50.4500435 C33.4876304,31.5227218 30.0843817,7.72615813 18.2412807,7.72615813 C7.8958473,7.72615813 2.12676454e-05,20.6868745 2.12676454e-05,32.1402967 C2.12676454e-05,36.802966 1.29351946,41.1229905 4.22037282,44.347366 C4.28864196,44.4163664 4.5610805,44.4832239 4.76503722,44.4832239 C4.96920661,44.4832239 5.10489419,44.4163664 5.10489419,44.2097938 C2.92687463,41.260777 2.17889154,37.2829687 2.17889154,33.5805191 C2.17889154,22.4022414 9.46093332,10.8798189 15.9275736,10.8798189 C24.9795088,10.8798189 26.8178841,29.671497 26.8178841,45.3763718 C26.8178841,54.0856355 26.2047379,61.7658934 26.0005685,64.7836962 C25.9322993,65.4685573 25.9322993,65.8814882 25.9322993,66.0173461 C25.9322993,67.3904967 30.4248767,69.8575822 32.603109,69.8575822 C34.1005639,69.8575822 34.1005639,68.6239323 34.3047333,67.3214964 C36.6184404,50.0388268 47.032143,13.6241916 59.9645728,2.92591661" id="Fill-9" fill="#FEFEFE" mask="url(#mask-2)"></path>
                </g>
                <path d="M108.550207,74.5232326 C107.667679,74.5232326 106.852009,73.9152065 106.852009,72.9698334 C106.852009,71.8231915 108.346661,70.2697924 111.064075,69.2569078 C111.132207,69.8649339 111.199277,70.4054485 111.199277,70.945752 C111.199277,73.4424145 109.772969,74.5232326 108.550207,74.5232326 M55.3591058,51.4994647 C56.3781095,51.4994647 56.9218895,52.7159389 56.9218895,54.3351618 C56.9218895,57.5096827 54.8836698,62.3694613 49.9936832,64.1260281 C50.1290975,58.1158101 52.3027315,51.4994647 55.3591058,51.4994647 M171.797204,72.2071636 C167.061522,72.2071636 161.976055,71.3641128 157.011357,70.3562916 C155.835502,70.1240096 154.648185,69.8782252 153.449832,69.6212593 C152.379252,69.391509 151.300394,69.1543746 150.215381,68.9128097 C149.87727,68.8406567 149.538309,68.7680818 149.204443,68.6978275 C149.172181,68.6910764 149.142042,68.6801058 149.113176,68.6668144 C139.581321,66.5338706 129.613508,64.1939616 120.369461,64.1939616 C118.535849,64.1939616 116.565761,64.3275079 114.664017,64.7342652 C113.509387,61.0194407 112.150361,57.3063041 112.150361,54.4708179 C112.150361,49.2722156 113.169365,44.8831193 113.169365,44.8153968 C113.169365,44.5461944 112.830405,44.4782609 112.625797,44.4782609 C111.60743,44.4782609 108.618339,45.7605589 108.483137,47.2460245 C108.211034,50.2173777 107.327445,55.6851824 103.252067,55.7529049 C100.806755,55.7529049 100.263824,55.6174598 97.4103594,53.9303034 C95.8484248,54.4708179 93.6066591,55.6174598 93.6066591,55.6174598 C95.3729888,56.6303444 96.1203148,59.4660416 96.1203148,62.708285 C96.1203148,68.2438122 93.8783368,74.7943338 90.6856992,74.7943338 C88.2401752,74.7943338 87.0184745,71.2149544 87.0184745,66.8260691 C87.0184745,60.2097238 89.8710905,51.9043232 95.7802931,51.9043232 C96.7309529,51.9043232 97.7501688,52.1077018 98.8375164,52.5802828 L98.8375164,52.1077018 C98.8375164,50.823716 98.4291509,47.1783019 93.1993548,47.1783019 C86.7465845,47.1783019 82.3311848,56.833723 82.3311848,65.0711901 C82.3311848,67.1224871 82.6071075,69.0908715 83.1918513,70.809674 C82.6845781,71.2398493 82.7117459,71.4949165 82.5984053,71.8909141 C81.5110577,75.3329496 80.221013,76.8863487 79.0655338,76.8863487 C77.3000531,76.8863487 75.8056134,73.3765907 75.8056134,67.8389537 C75.8056134,64.8000889 76.4164637,61.0871633 77.9792474,57.3740266 C78.4546834,56.2256969 79.6774454,53.0528639 79.6774454,53.0528639 C79.6774454,53.0528639 79.8809914,52.6480054 79.8809914,52.1754244 C79.8809914,51.2302623 78.5228151,49.4736955 77.6392257,49.4736955 C77.095658,49.4736955 73.4955038,53.2543437 71.1183237,54.8077429 C70.4391294,55.2126013 69.9636934,55.4837025 69.6236718,55.4837025 C69.1482358,55.4837025 69.0128214,55.0111215 69.0128214,53.8625808 C69.0128214,52.5802828 69.3528431,50.8914386 69.3528431,49.4736955 C69.3528431,47.786539 68.8774071,46.368796 66.8391874,46.368796 C64.7336851,46.368796 63.6465497,48.8673572 63.6465497,51.6351208 C63.6465497,54.133682 64.5301391,56.833723 66.3637514,58.1837436 C65.3445355,66.2857655 62.6273338,75.8055306 55.8353908,75.8055306 C52.9817136,75.8055306 50.6045335,73.4424145 50.0609658,66.9617252 C57.1935672,64.2597854 60.2501538,58.2514661 60.2501538,53.661101 C60.2501538,50.2173777 58.5519558,47.5831604 55.5635009,47.5831604 C49.2463572,47.5831604 45.1026352,56.0919396 44.6953309,64.2597854 L43.6763272,64.0583055 C43.3363056,64.0583055 42.8608696,64.3954414 42.8608696,64.6663316 C42.8608696,64.7342652 42.9290012,64.8000889 42.9971329,64.8678115 C43.7444589,65.6794272 43.4727812,66.3534881 43.8800855,66.4212106 C44.1517632,66.4889332 44.4236532,66.4889332 44.6953309,66.4889332 C46.5972872,74.5232326 50.5364019,77.7635772 54.7482555,77.7635772 C64.0536418,77.7635772 67.3146234,66.0842857 68.2654955,58.9934605 C68.5373854,59.0611831 68.8090631,59.0611831 69.0809531,59.0611831 C70.5072611,59.0611831 72.0019131,58.7919807 73.0881995,58.2514661 C72.4773491,60.4789262 71.3900015,65.8131845 71.3900015,70.6746509 C71.3900015,77.2912072 74.1074154,80.0608696 77.0281631,80.0608696 C79.9716214,80.0608696 83.1362423,77.1979568 83.9230465,72.5181388 C85.2771901,75.0711312 87.5401806,76.7506926 90.8892452,76.7506926 C96.7992968,76.7506926 100.874887,68.1760897 100.874887,60.5466487 L100.874887,59.4660416 C104.611092,58.3871222 107.463921,56.1577634 108.142903,54.943188 C108.142903,56.1577634 109.705686,61.2226084 110.588639,65.8809071 C107.260375,67.2986501 104.814851,69.7972114 104.814851,73.9152065 C104.814851,77.4266523 107.123899,78.9800514 109.637555,78.9800514 C112.762273,78.9800514 116.158669,76.5492128 116.158669,72.2957726 C116.158669,71.0795093 115.954911,69.6617663 115.614889,68.3117457 C116.090325,68.2438122 116.565761,68.2438122 117.109329,68.2438122 C131.373895,68.2438122 148.767636,80.0328101 164.725943,79.6541123 C174.909612,79.4123365 179.165189,76.2599679 182.176567,72.6272122 C183.025772,71.6023021 183.729799,69.9649354 183.54387,69.5718915 C180.16127,71.4993469 176.126007,72.2071636 171.797204,72.2071636" id="Fill-12" fill="#FEFEFE"></path>
                <g id="Group-16" transform="translate(63.886957, 0.000000)">
                    <mask id="mask-4" fill="white">
                        <use xlink:href="#path-3"></use>
                    </mask>
                    <g id="Clip-15"></g>
                    <path d="M1.0830378,10.493321 L1.46836091,10.493321 C1.57319463,10.5957181 1.642725,10.6636323 1.71225538,10.6636323 C1.78286207,10.6636323 1.85239244,10.5612353 1.85239244,10.4241452 C1.85239244,10.1514368 1.74755872,9.94664275 1.74755872,9.67267283 C1.74755872,4.92372083 9.37394271,2.08772223 16.1601501,2.08772223 C21.54757,2.08772223 26.3755179,3.86358553 26.3755179,7.96472379 C26.3755179,12.9195212 21.6183919,15.2420627 15.6357662,15.2420627 C15.1809127,15.2420627 14.7260593,15.2420627 14.2369787,15.2088415 C14.6212255,7.58835683 15.2162161,5.6407104 15.2162161,4.78684101 C15.2162161,4.68444397 15.0065487,4.64975092 14.9712453,4.64975092 C14.9712453,4.64975092 12.4177801,4.78684101 12.0677603,4.82132379 C11.8580928,4.85475527 11.7872709,5.02611788 11.7872709,5.23112223 C11.7530439,5.67519318 11.7530439,7.58835683 11.7530439,10.390924 C11.7530439,11.7225061 11.7530439,13.2948368 11.7177405,14.9695647 C10.2483463,14.7300775 8.77873689,14.3881934 7.30955797,13.9094294 C7.09967527,13.8415151 6.85578081,13.704425 6.68012513,13.704425 C6.61081002,13.704425 6.53998806,13.7391181 6.53998806,13.8415151 C6.53998806,13.9439121 6.61081002,14.080792 6.75094709,14.3537106 L6.75094709,14.4226761 C6.75094709,14.5250732 6.64482178,14.6276805 6.64482178,14.6953845 C6.64482178,14.8324746 6.71564374,14.9695647 6.85578081,15.0372687 C7.0301449,15.1743587 7.8703215,16.3021981 7.8703215,16.3021981 C8.74472513,17.6684732 10.1092856,18.4201558 11.6824372,18.7965227 C11.6129068,22.5887878 11.4725545,26.7923231 11.1933567,30.8575067 C11.1933567,31.0969939 11.262887,31.4386678 11.7177405,31.4386678 C11.9629266,31.4386678 11.927408,31.0969939 13.9567046,30.1403069 C13.9567046,25.7666706 13.992008,22.1791996 14.0968417,19.2061109 C15.1113824,19.2740252 16.1601501,19.2740252 17.140679,19.2740252 C25.2912316,19.2740252 29.7338564,14.115485 29.7338564,9.19496014 C29.7338564,2.63440049 24.1012505,0.17350727 17.7698966,0.17350727 C9.5483068,0.17350727 0.139103797,4.30807701 0.139103797,9.12599457 C0.139103797,9.98007423 0.62818431,10.390924 1.0830378,10.493321" id="Fill-14" fill="#FEFEFE" mask="url(#mask-4)"></path>
                </g>
                <path d="M94.7363959,17.9639301 C95.2744695,17.9639301 95.8487682,18.2972245 96.4592918,19.0298164 C96.1365801,21.6611206 95.0591075,28.2901132 92.1160478,28.2901132 C91.3979536,28.2901132 91.0387961,27.3242563 91.0387961,25.958487 C91.0387961,23.3261579 92.5103259,17.9639301 94.7363959,17.9639301 M88.9565217,24.6257192 C88.9565217,27.4902886 90.0339944,29.9217391 92.5103259,29.9217391 C93.9105102,29.9217391 95.2744695,28.1230561 96.2441507,25.7914299 C96.6030873,28.78944 97.9670466,29.9217391 99.3672309,29.9217391 C101.017677,29.9217391 102.704348,28.3227048 102.704348,26.5578431 C102.704348,26.4578138 102.704348,26.2581651 102.561878,26.2581651 C102.454086,26.2581651 102.381636,26.6912838 101.987358,26.7911082 C101.628201,27.5899079 100.65874,28.2564968 99.8690796,28.2564968 C98.9718484,28.2564968 98.7202614,26.9247539 98.7202614,25.2246653 C98.7202614,22.8606526 99.2232145,19.8288211 99.2232145,18.8627592 C99.2232145,18.4632568 98.3262042,18.1961703 97.6792347,18.030138 C97.4278686,16.4973116 96.4955168,15.3652174 94.5926003,15.3652174 C91.1828125,15.3652174 88.9565217,20.4615886 88.9565217,24.6257192" id="Fill-17" fill="#FEFEFE"></path>
                <path d="M100.698447,22.1898091 C100.872255,22.1898091 101.047351,21.9859052 101.185755,21.7148699 C101.185755,21.7148699 102.930064,18.4176921 103.557277,18.4176921 C103.627874,18.4176921 103.661992,18.5538371 103.661992,18.8252907 C103.661992,19.912778 103.139278,22.8696978 103.139278,25.5200298 C103.139278,28.1038577 103.661992,30.3808888 105.68461,30.3808888 C107.638133,30.3808888 109.381155,27.5601141 109.903654,26.4726268 C109.416346,30.0063331 109.520846,38.0612678 105.68461,41.0526944 C104.639183,41.8333848 103.452778,42.2077313 102.26766,42.2077313 C100.035828,42.2077313 97.8735194,40.9163402 96.8619959,38.6738159 C96.7929015,38.4356144 96.6884018,38.333767 96.6175908,38.333767 C96.5484965,38.333767 96.5836874,38.5031641 96.5133056,38.6393091 C96.4088059,38.843213 96.2347826,39.01261 96.2347826,39.1830528 L96.2347826,39.2175596 C96.9664956,42.2077313 99.9313281,43.6695652 102.790373,43.6695652 C104.324396,43.6695652 105.859706,43.2276689 106.975514,42.4114261 C111.543678,39.01261 112.379676,30.1083896 112.484391,24.5686875 C112.588891,20.3546743 112.798105,18.3488876 113.217391,16.5482596 C113.217391,16.3443558 111.228677,16.173913 110.706178,16.173913 C110.427655,16.173913 110.28775,16.513962 110.28775,16.6158093 C110.28775,20.0821751 110.18325,23.0060519 109.799154,24.2974431 C109.067441,26.7106192 107.428919,28.9876503 106.41761,28.9876503 C105.929015,28.9876503 105.58011,28.4439066 105.58011,27.0163704 C105.58011,25.316335 105.929015,22.699255 105.929015,20.558369 C105.929015,18.4852418 105.615301,16.8538017 104.394992,16.8538017 C102.301778,16.8538017 101.534659,19.2326802 100.349542,21.9185646 C100.454042,22.0879617 100.593947,22.1898091 100.698447,22.1898091" id="Fill-19" fill="#FEFEFE"></path>
                <path d="M127.094728,13.9161188 C127.094728,13.7808613 126.925106,13.7478261 126.823541,13.7478261 C126.31655,13.7478261 124.828669,14.3892085 124.760196,15.131982 C124.557691,17.5624618 122.020239,26.5438928 119.721297,29.8524037 C119.686957,29.8866856 119.686957,29.9207596 119.686957,29.9548337 C119.686957,30.2243099 120.431001,30.3597752 120.431001,30.3597752 C122.562819,27.6585726 124.083584,21.6476126 124.895893,20.0953716 C124.895893,20.9050468 126.180853,24.7207214 126.180853,26.9829084 C126.180853,27.9964047 125.944008,28.7048965 125.199963,28.7048965 C124.388902,28.7048965 124.388902,27.4219239 123.880871,26.2403426 C123.847571,26.1732332 123.813439,26.1732332 123.779306,26.1732332 C123.576593,26.1732332 123.272523,27.0171902 123.272523,27.9964047 C123.272523,29.8524037 124.490259,30.7304348 125.741295,30.7304348 C127.127611,30.7304348 128.582609,29.684111 128.582609,27.6585726 C128.582609,24.8890141 126.586696,21.1757696 126.586696,18.7440432 C126.586696,16.1442318 127.094728,13.9504007 127.094728,13.9161188" id="Fill-21" fill="#FEFEFE"></path>
                <path d="M61.3794956,38.371244 L59.8434783,39.626087 C61.5274783,37.568136 63.6316204,35.6313926 66.2524151,34.9832326 C70.1181946,34.0273256 74.3502847,34.4470392 78.2709679,34.7586546 C82.9354249,35.1297993 87.5934478,35.7293903 92.2757056,35.8299668 C95.3921351,35.8970179 99.2963042,35.9885683 101.895652,33.9652174 C100.938054,34.7105154 100.204575,35.7526003 99.2429018,36.5013368 C97.0094356,38.2399358 93.8142966,38.3521173 91.1068569,38.3776913 C87.3378024,38.4131509 83.5702491,38.0134236 79.8217835,37.6665634 C75.999541,37.3128263 72.1513479,36.9098753 68.3074442,36.9979873 C66.7945893,37.0328022 65.2630758,37.1338086 63.7845358,37.4748663 C63.1443499,37.6225075 62.5063086,37.8084022 61.9075149,38.081979 C61.708489,38.1728847 61.5317676,38.2728166 61.3794956,38.371244" id="Fill-23" fill="#FEFEFE"></path>
                <path d="M113.217391,39.626087 C114.01881,38.3130496 115.132573,36.5945428 116.45148,35.7088143 C118.301867,34.4662397 121.05786,34.4415159 123.2193,34.3597215 C126.186464,34.2474345 129.161593,34.3737316 132.126173,34.1841829 C134.194406,34.0521168 136.777974,33.8932667 138.286957,32.3478261 C137.457339,33.197293 136.929087,34.32346 136.095164,35.1774596 C133.592319,37.7409008 128.119297,37.1114752 124.83742,37.1306361 C121.528206,37.1500031 116.062717,36.543653 113.553199,39.1406773 L113.217391,39.626087 Z" id="Fill-25" fill="#FEFEFE"></path>
                <path d="M111.813078,9.75554169 L111.827806,9.7747924 L117.909811,17.7913043 L125.820643,11.6280511 L125.839854,11.6131264 L125.83964,11.6129101 C128.012761,9.90349092 128.415965,6.73361388 126.737405,4.52108081 C125.058632,2.30854774 121.931823,1.88870937 119.742907,3.57779635 C118.056023,1.37542938 114.927933,0.966622311 112.744354,2.6678221 C110.560988,4.36902188 110.146898,7.53716852 111.813291,9.75532539 L111.813078,9.75554169 Z" id="Fill-27" fill="#FEFEFE"></path>
            </g>
        </g>
    </g>
</svg>