<?xml version="1.0" encoding="UTF-8"?>
<svg width="26px" height="25px" viewBox="0 0 26 25" version="1.1" xmlns="http://www.w3.org/2000/svg" xmlns:xlink="http://www.w3.org/1999/xlink">
    <!-- Generator: Sketch 51.3 (57544) - http://www.bohemiancoding.com/sketch -->
    <title>Page 1</title>
    <desc>Created with Sketch.</desc>
    <defs>
        <polygon id="path-1" points="0 0.0802369369 25.9217809 0.0802369369 25.9217809 16.9999847 0 16.9999847"></polygon>
    </defs>
    <g id="Symbols" stroke="none" stroke-width="1" fill="none" fill-rule="evenodd">
        <g id="card-A" transform="translate(-157.000000, -415.000000)">
            <g id="Group-4" transform="translate(157.000000, 415.000000)">
                <g id="Page-1">
                    <g id="Group-3" transform="translate(0.000000, 8.000000)">
                        <mask id="mask-2" fill="white">
                            <use xlink:href="#path-1"></use>
                        </mask>
                        <g id="Clip-2"></g>
                        <path d="M14.9078596,10.7084532 C14.3523652,11.0744892 13.9135787,11.3634892 12.960927,11.3634892 C12.0081292,11.3634892 11.5694888,11.0744892 11.013264,10.7079937 C10.3594663,10.2776333 9.54587079,9.7419036 8.03582584,9.7419036 C6.52505056,9.7419036 5.71203933,10.2780928 5.05867978,10.7089126 C4.5040618,11.0746423 4.06600562,11.3634892 3.11364607,11.3634892 C2.46539888,11.3634892 1.93809551,10.8095342 1.93809551,10.1286153 C1.93809551,9.4476964 2.46642135,8.89358829 3.11598315,8.89358829 C3.5173764,8.89358829 3.88210674,8.62878649 4.0235,8.23426396 C5.33211798,4.57252523 8.92376966,2.11227297 12.960927,2.11227297 C16.9980843,2.11227297 20.589736,4.57252523 21.8983539,8.23457027 C22.0396011,8.62878649 22.4043315,8.89358829 22.8058708,8.89358829 C23.4554326,8.89358829 23.9837584,9.4476964 23.9837584,10.1286153 C23.9837584,10.8095342 23.456309,11.3634892 22.8082079,11.3634892 C21.8557022,11.3634892 21.4176461,11.0746423 20.8631742,10.7089126 C20.2098146,10.2780928 19.3966573,9.7419036 17.8860281,9.7419036 C16.3762753,9.7419036 15.5625337,10.2776333 14.9078596,10.7084532 M6.09079213,12.4291288 C6.64584831,12.0632459 7.08405056,11.7740928 8.03582584,11.7740928 C8.98730899,11.7740928 9.42609551,12.0629396 9.98348876,12.4298946 C10.6374326,12.8604081 11.450882,13.3961378 12.960927,13.3961378 C14.471264,13.3961378 15.2850056,12.8601018 15.940118,12.4286694 C16.4957584,12.0630928 16.9345449,11.7740928 17.8860281,11.7740928 C18.8382416,11.7740928 19.2765899,12.0632459 19.8315,12.429282 C20.3031517,12.740336 20.8752978,13.1175523 21.7397247,13.294291 L21.3805449,14.9681018 L4.54116292,14.9681018 L4.18212921,13.294291 C5.04626404,13.1175523 5.61870225,12.740336 6.09079213,12.4291288 M23.4868371,6.94027297 C21.7451292,2.82857027 17.5420393,0.0802369369 12.960927,0.0802369369 C8.37981461,0.0802369369 4.17672472,2.82857027 2.43487079,6.94027297 C1.03320787,7.27093063 -7.30337079e-05,8.60489459 -7.30337079e-05,10.1286153 C-7.30337079e-05,11.5751468 0.887724719,12.8244171 2.18553371,13.2469667 L2.8203427,16.2069577 C2.92054494,16.6739216 3.3093764,16.9999847 3.76598315,16.9999847 L22.1557247,16.9999847 C22.6123315,16.9999847 23.0010169,16.6739216 23.1012191,16.2071108 L23.7361742,13.2469667 C25.0342753,12.8245703 25.9217809,11.5751468 25.9217809,10.1286153 C25.9217809,8.60489459 24.8886461,7.27093063 23.4868371,6.94027297" id="Fill-1" fill="#4D3F10" mask="url(#mask-2)"></path>
                    </g>
                    <path d="M12.9999246,13 C12.4485643,13 12,13.3656319 12,13.8150545 L12,15.1848227 C12,15.6342452 12.4485643,16 12.9999246,16 C13.5512849,16 14,15.6342452 14,15.1848227 L14,13.8150545 C14,13.3656319 13.5512849,13 12.9999246,13" id="Fill-4" fill="#4D3F10"></path>
                    <path d="M16.7488707,12.3380936 L16.7487226,12.3378203 C16.4091032,11.9486862 15.7892571,11.8865177 15.3671397,12.1994099 C15.1625979,12.3512104 15.0343335,12.567229 15.0058961,12.8078418 C14.9774587,13.0487278 15.0525512,13.2853781 15.2168067,13.4736599 L16.2516608,14.6615572 C16.4391698,14.8766194 16.7185078,15 17.0176928,15 C17.2406004,15 17.4592128,14.9289502 17.6327993,14.7999676 C17.8373411,14.6483037 17.9656055,14.4321485 17.9940429,14.1913991 C18.0226284,13.9507864 17.9476841,13.7142727 17.7832804,13.5257176 L16.7488707,12.3380936 Z" id="Fill-6" fill="#4D3F10"></path>
                    <path d="M10.6335833,12.1994135 L10.633287,12.1992769 C10.2110021,11.8865218 9.59091012,11.9486902 9.25100784,12.338097 L8.21618764,13.5257195 C7.87687804,13.9152629 7.94444362,14.4868028 8.36643215,14.7996946 C8.54038389,14.9289503 8.759083,15 8.98207905,15 C9.28123455,15 9.56068341,14.8767562 9.74885948,14.6612844 L10.7838279,13.4735253 C11.1229893,13.0842551 11.05572,12.5125786 10.6335833,12.1994135" id="Fill-8" fill="#4D3F10"></path>
                    <path d="M10,7.0735828 C10,7.58433398 10.5130445,8 11.1436616,8 C11.7742788,8 12.2874957,7.58433398 12.2874957,7.0735828 C12.2874957,6.47277297 12.4124813,6.20371405 12.5709114,5.86260821 C12.7619239,5.45001396 13,4.93647026 13,3.99986037 C13,3.06269199 12.7619239,2.54970679 12.570739,2.13725216 C12.4124813,1.79614633 12.2874957,1.52680815 12.2874957,0.926277576 C12.2874957,0.415386763 11.7742788,0 11.1436616,0 C10.5130445,0 10,0.415386763 10,0.926277576 C10,1.86177046 10.2377313,2.37503491 10.4296058,2.78930466 C10.5876911,3.13055013 10.7126767,3.40002793 10.7126767,3.99986037 C10.7126767,4.59941357 10.5878635,4.869031 10.429261,5.21139347 C10.2380761,5.62398771 10,6.13725216 10,7.0735828" id="Fill-10" fill="#4D3F10"></path>
                    <path d="M13,7.0735828 C13,7.58433398 13.5130445,8 14.1436616,8 C14.7742788,8 15.2874957,7.58433398 15.2874957,7.0735828 C15.2874957,6.47207484 15.4123089,6.20329517 15.5709114,5.86163083 C15.7620963,5.44917621 16,4.93577213 16,3.99986037 C16,3.06339011 15.7619239,2.55012566 15.5703942,2.13725216 C15.4123089,1.79656521 15.2874957,1.52750628 15.2874957,0.926277576 C15.2874957,0.415386763 14.7742788,0 14.1436616,0 C13.5130445,0 13,0.415386763 13,0.926277576 C13,1.86330634 13.2379037,2.37643116 13.4290886,2.78902541 C13.5875187,3.13027087 13.7126767,3.39960905 13.7126767,3.99986037 C13.7126767,4.59997207 13.5875187,4.8695895 13.4290886,5.21111421 C13.2379037,5.62301033 13,6.13571628 13,7.0735828" id="Fill-12" fill="#4D3F10"></path>
                </g>
            </g>
        </g>
    </g>
</svg>